<?xml version="1.0" encoding="UTF-8" standalone="no"?>
<!-- Created with Inkscape (http://www.inkscape.org/) -->

<svg
   width="130mm"
   height="130mm"
   viewBox="0 0 130 130"
   version="1.1"
   id="svg971"
   sodipodi:docname="pknu.svg"
   inkscape:version="1.2 (dc2aeda, 2022-05-15)"
   inkscape:export-filename="pknu.png"
   inkscape:export-xdpi="400"
   inkscape:export-ydpi="400"
   xmlns:inkscape="http://www.inkscape.org/namespaces/inkscape"
   xmlns:sodipodi="http://sodipodi.sourceforge.net/DTD/sodipodi-0.dtd"
   xmlns="http://www.w3.org/2000/svg"
   xmlns:svg="http://www.w3.org/2000/svg">
  <sodipodi:namedview
     id="namedview973"
     pagecolor="#ffffff"
     bordercolor="#000000"
     borderopacity="0.25"
     inkscape:showpageshadow="2"
     inkscape:pageopacity="0.0"
     inkscape:pagecheckerboard="0"
     inkscape:deskcolor="#d1d1d1"
     inkscape:document-units="mm"
     showgrid="false"
     inkscape:zoom="1.2940392"
     inkscape:cx="207.87623"
     inkscape:cy="234.53694"
     inkscape:window-width="2304"
     inkscape:window-height="1243"
     inkscape:window-x="1920"
     inkscape:window-y="25"
     inkscape:window-maximized="0"
     inkscape:current-layer="layer1" />
  <defs
     id="defs968" />
  <g
     inkscape:label="Layer 1"
     inkscape:groupmode="layer"
     id="layer1">
    <rect
       style="fill:#003775;fill-opacity:1;stroke-width:0.449299"
       id="rect1886"
       width="130"
       height="130"
       x="-7.1054274e-15"
       y="-1.4210855e-14" />
    <g
       id="g3190"
       transform="translate(-45.181886,-68.595973)">
      <g
         id="g3144"
         style="stroke:#ffffff;stroke-opacity:1">
        <path
           d="m 110.18334,173.20972 c 29.65533,0 53.69238,-17.73327 53.69238,-39.60272 0,-21.87175 -24.03705,-39.603472 -53.69238,-39.603472 -29.656159,0 -53.694899,17.731722 -53.694899,39.603472 0,21.86945 24.03874,39.60272 53.694899,39.60272 z"
           style="fill:none;stroke:#ffffff;stroke-width:1.13911;stroke-linecap:butt;stroke-linejoin:miter;stroke-miterlimit:4;stroke-dasharray:none;stroke-opacity:1"
           id="path134" />
        <path
           d="m 110.18334,161.94357 c 21.8204,0 39.51742,-12.69517 39.51742,-28.35266 0,-15.65596 -17.69702,-28.35114 -39.51742,-28.35114 -21.823759,0 -39.517389,12.69518 -39.517389,28.35114 0,15.65749 17.69363,28.35266 39.517389,28.35266 z"
           style="fill:none;stroke:#ffffff;stroke-width:0.455484;stroke-linecap:butt;stroke-linejoin:miter;stroke-miterlimit:4;stroke-dasharray:none;stroke-opacity:1"
           id="path136" />
      </g>
      <g
         id="g3140"
         style="fill:#ffffff;fill-opacity:1">
        <path
           d="m 98.505501,151.74407 c -9.67428,-1.30492 -17.04769,-8.67852 -17.04769,-17.84283 0,-9.14133 7.47446,-16.57392 17.11423,-17.90719 l 0.10957,-0.013 c -6.97589,3.51861 -11.78988,10.14511 -11.78988,17.92021 0,7.70232 4.59333,14.21925 11.47237,17.76391 z"
           style="fill:#ffffff;fill-opacity:1;fill-rule:nonzero;stroke:none;stroke-width:0.803324"
           id="path130" />
        <path
           d="m 130.46084,133.90124 c 0,-9.33978 -7.67574,-17.04593 -17.60353,-18.17768 l 4.52006,18.17768 h -7.19403 v 25.95739 l 2.13919,-7.72378 c 10.18211,-0.9149 18.13831,-8.72908 18.13831,-18.23361"
           style="fill:#ffffff;fill-opacity:1;fill-rule:nonzero;stroke:none;stroke-width:0.803324"
           id="path132" />
        <path
           d="m 122.22334,151.74407 c 9.67598,-1.30492 17.04516,-8.67852 17.04516,-17.84283 0,-9.14133 -7.47362,-16.57392 -17.10916,-17.90719 l -0.11197,-0.013 c 6.97927,3.51861 11.78482,10.14511 11.78482,17.92021 0,7.70232 -4.58826,14.21925 -11.46308,17.76391 z"
           style="fill:#ffffff;fill-opacity:1;fill-rule:nonzero;stroke:none;stroke-width:0.803324"
           id="path138" />
        <path
           d="m 107.95912,115.70211 c -10.007789,1.06662 -17.778709,8.80724 -17.778709,18.19913 0,9.2463 7.5309,16.88961 17.312969,18.14166 l -4.5091,-18.14166 h 7.19906 v -18.32326 -8.00039 z"
           style="fill:#ffffff;fill-opacity:1;fill-rule:nonzero;stroke:none;stroke-width:0.803324"
           id="path140" />
        <g
           id="g2178"
           style="fill:#ffffff;fill-opacity:1">
          <path
             d="m 69.219041,150.0476 c -0.19528,-0.27892 -0.40424,-0.6061 -0.66196,-0.83521 -0.32341,-0.27432 -0.73524,-0.35094 -1.0477,-0.16934 -0.32255,0.18697 -0.38739,0.56856 -0.23586,0.95168 0.11363,0.27585 0.36886,0.61607 0.53898,0.85973 l 0.14563,0.20535 1.39973,-0.80763 z m 3.92127,-0.39845 -5.37152,3.09104 -0.98873,-1.42829 c -0.40258,-0.58158 -0.80935,-1.11565 -0.85483,-1.80221 -0.0506,-0.67123 0.25181,-1.27044 0.78913,-1.58 0.53058,-0.30497 1.21192,-0.35171 1.88061,-0.0697 0.69987,0.2973 1.16141,1.01681 1.57659,1.61601 l 0.15255,0.22298 2.03727,-1.17082 z"
             style="fill:#ffffff;fill-opacity:1;fill-rule:nonzero;stroke:none;stroke-width:0.803324"
             id="path142" />
          <path
             d="m 63.709411,146.07997 3.70229,-1.28653 c 0.27287,-0.0966 0.5609,-0.17318 0.7504,-0.40458 0.22728,-0.28734 0.29644,-0.67276 0.12963,-1.06585 -0.1356,-0.32642 -0.43372,-0.6061 -0.76974,-0.69805 -0.3512,-0.095 -0.65272,0.02 -0.96601,0.12796 l -3.70734,1.28806 -0.51709,-1.23902 3.70142,-1.28806 c 0.58449,-0.20229 1.16308,-0.34175 1.81494,-0.0674 0.64006,0.27432 1.22875,0.82602 1.51678,1.50645 0.26447,0.63368 0.23587,1.40146 -0.007,1.96542 -0.2813,0.65744 -0.80766,0.90264 -1.42583,1.11872 l -3.70314,1.28653 z"
             style="fill:#ffffff;fill-opacity:1;fill-rule:nonzero;stroke:none;stroke-width:0.803324"
             id="path144" />
          <path
             d="m 61.688141,140.54077 -0.20459,-1.31641 2.71944,-0.35707 -3.06981,-1.85279 -0.24591,-1.57463 3.50606,2.27881 2.78345,-3.09947 0.24845,1.57771 -2.41289,2.56692 2.75903,-0.3586 0.20626,1.31488 z"
             style="fill:#ffffff;fill-opacity:1;fill-rule:nonzero;stroke:none;stroke-width:0.803324"
             id="path146" />
          <path
             d="m 65.028291,132.16569 -4.20424,2.06044 0.12963,-1.46123 3.05212,-1.3463 -2.77841,-1.76697 0.12295,-1.4482 3.78987,2.63665 2.33876,0.17088 -0.11459,1.32407 z"
             style="fill:#ffffff;fill-opacity:1;fill-rule:nonzero;stroke:none;stroke-width:0.803324"
             id="path148" />
          <path
             d="m 65.059441,126.52535 c 1.11424,0.35937 2.4626,-0.36857 2.94348,-1.60452 0.48006,-1.23596 -0.0683,-2.57076 -1.17571,-2.9286 -1.1277,-0.36167 -2.42719,0.34711 -2.91566,1.60912 -0.49523,1.26584 0.0215,2.56233 1.14789,2.924 m 2.27646,-5.77827 c 1.7383,0.55629 2.49122,2.60217 1.74417,4.52239 -0.74365,1.91945 -2.74637,3.07571 -4.48131,2.51635 -1.74334,-0.56089 -2.52657,-2.58148 -1.7669,-4.53005 0.75797,-1.9478 2.76406,-3.06958 4.50404,-2.50869"
             style="fill:#ffffff;fill-opacity:1;fill-rule:nonzero;stroke:none;stroke-width:0.803324"
             id="path150" />
          <path
             d="m 65.535291,117.86293 0.93399,-1.2283 5.68566,-0.0598 -3.81852,-2.39989 0.82874,-1.09343 5.22916,3.28413 -0.92136,1.21374 -5.68311,0.082 3.8067,2.39299 -0.82871,1.09267 z"
             style="fill:#ffffff;fill-opacity:1;fill-rule:nonzero;stroke:none;stroke-width:0.803324"
             id="path152" />
          <path
             d="m 76.455181,108.95684 c -0.69903,-0.0667 -1.51595,0.20843 -2.09874,0.69115 -0.49774,0.40918 -0.85147,0.93866 -0.98623,1.48116 -0.14228,0.59384 0.01,1.23979 0.39921,1.63134 0.35962,0.3632 0.95927,0.56472 1.55133,0.5402 0.70407,-0.0176 1.42919,-0.30113 1.99346,-0.75858 0.68724,-0.56932 1.08138,-1.45894 0.94242,-2.17921 l -2.44658,2.0114 -0.74112,-0.74862 3.8126,-3.13319 0.0919,0.0904 c 1.24392,1.25511 0.74449,3.38528 -0.92558,4.7561 -1.68944,1.38461 -4.08294,1.60682 -5.33445,0.34404 -1.25487,-1.26507 -0.80092,-3.42819 0.87672,-4.80897 1.18244,-0.97313 2.90052,-1.44514 4.1638,-0.98385 z"
             style="fill:#ffffff;fill-opacity:1;fill-rule:nonzero;stroke:none;stroke-width:0.803324"
             id="path154" />
          <path
             d="m 81.221151,103.82988 1.46878,-0.672 5.01865,2.42594 -2.09117,-3.77377 1.30708,-0.59614 2.86177,5.16144 -1.44774,0.66434 -5.03546,-2.40602 2.08442,3.75768 -1.30288,0.59997 z"
             style="fill:#ffffff;fill-opacity:1;fill-rule:nonzero;stroke:none;stroke-width:0.803324"
             id="path156" />
          <path
             d="m 93.973651,102.41998 -1.38458,-1.43977 -0.22321,1.90105 z m -2.42805,-2.70638 1.08645,-0.313395 5.07589,4.604375 -1.53533,0.4406 -1.30539,-1.18999 -2.66807,0.76472 -0.33436,1.66505 -1.53952,0.44366 z"
             style="fill:#ffffff;fill-opacity:1;fill-rule:nonzero;stroke:none;stroke-width:0.803324"
             id="path158" />
          <path
             d="m 98.145041,99.197917 -1.42079,0.249795 -0.21391,-1.022172 4.304439,-0.74939 0.21558,1.022172 -1.447719,0.252096 0.979469,4.656482 -1.435089,0.24827 z"
             style="fill:#ffffff;fill-opacity:1;fill-rule:nonzero;stroke:none;stroke-width:0.803324"
             id="path160" />
          <path
             d="m 101.88354,97.572706 1.44941,-0.162446 0.76893,5.74072 -1.45194,0.15784 z"
             style="fill:#ffffff;fill-opacity:1;fill-rule:nonzero;stroke:none;stroke-width:0.803324"
             id="path162" />
          <path
             d="m 106.4617,100.0178 c 0.0191,1.07045 1.24391,1.96849 2.68154,1.94703 1.43762,-0.023 2.62681,-0.95397 2.60829,-2.024421 -0.0191,-1.089603 -1.20687,-1.948566 -2.68073,-1.924046 -1.46961,0.01911 -2.62509,0.915666 -2.6091,2.001437 m 6.74934,-0.07739 c 0.031,1.67425 -1.81241,3.03051 -4.04928,3.06499 -2.24107,0.0337 -4.12758,-1.26814 -4.15621,-2.94392 -0.0346,-1.67885 1.7787,-3.054263 4.04589,-3.086446 2.27309,-0.03371 4.13181,1.284231 4.1596,2.965376"
             style="fill:#ffffff;fill-opacity:1;fill-rule:nonzero;stroke:none;stroke-width:0.803324"
             id="path164" />
          <path
             d="m 115.01838,97.168894 1.6305,0.196157 2.65038,4.573729 0.59964,-4.185243 1.45109,0.170875 -0.82198,5.729228 -1.60943,-0.19079 -2.67395,-4.560706 -0.60554,4.172216 -1.44438,-0.17394 z"
             style="fill:#ffffff;fill-opacity:1;fill-rule:nonzero;stroke:none;stroke-width:0.803324"
             id="path166" />
          <path
             d="m 126.44947,102.44757 -0.28633,-1.89416 -1.33404,1.47962 z m -0.39498,-3.472632 1.09908,0.281214 1.46288,6.385898 -1.55384,-0.40228 -0.36972,-1.64666 -2.68999,-0.69269 -1.28686,1.22293 -1.5488,-0.40075 z"
             style="fill:#ffffff;fill-opacity:1;fill-rule:nonzero;stroke:none;stroke-width:0.803324"
             id="path168" />
          <path
             d="m 131.61886,100.61317 1.34246,0.51722 -2.01958,4.36837 2.21919,0.84824 -0.44636,0.95934 -3.56081,-1.36392 z"
             style="fill:#ffffff;fill-opacity:1;fill-rule:nonzero;stroke:none;stroke-width:0.803324"
             id="path170" />
          <path
             d="m 140.5975,104.71566 -2.20065,2.99909 c -0.16163,0.22068 -0.34531,0.43906 -0.3512,0.72564 -0.002,0.35554 0.18621,0.70495 0.571,0.93865 0.31667,0.19155 0.7403,0.26206 1.06792,0.16169 0.34781,-0.10728 0.52299,-0.3609 0.70743,-0.61377 l 2.20066,-2.99832 1.21529,0.73406 -2.19899,3.00063 c -0.35203,0.47737 -0.73439,0.89267 -1.43089,1.01144 -0.7007,0.11416 -1.53531,-0.0276 -2.19896,-0.43063 -0.62237,-0.37546 -1.08642,-1.01604 -1.24728,-1.60222 -0.18788,-0.68809 0.0867,-1.1647 0.45226,-1.66429 l 2.19812,-2.99909 z"
             style="fill:#ffffff;fill-opacity:1;fill-rule:nonzero;stroke:none;stroke-width:0.803324"
             id="path172" />
          <path
             d="m 145.71129,107.97987 1.18244,1.0421 -0.87925,5.1124 3.23236,-3.03511 1.0502,0.92563 -4.4232,4.15076 -1.16559,-1.02677 0.84894,-5.11393 -3.22308,3.02131 -1.04686,-0.92333 z"
             style="fill:#ffffff;fill-opacity:1;fill-rule:nonzero;stroke:none;stroke-width:0.803324"
             id="path174" />
          <path
             d="m 151.63781,113.64627 0.88598,1.05359 -5.06073,3.50021 -0.88429,-1.05818 z"
             style="fill:#ffffff;fill-opacity:1;fill-rule:nonzero;stroke:none;stroke-width:0.803324"
             id="path176" />
          <path
             d="m 153.62877,115.86992 0.72092,1.23289 -3.26772,3.76764 5.26034,-0.35861 0.72176,1.23136 -7.0399,0.26895 -0.56596,-0.97083 z"
             style="fill:#ffffff;fill-opacity:1;fill-rule:nonzero;stroke:none;stroke-width:0.803324"
             id="path178" />
          <path
             d="m 157.58792,123.33393 1.142,3.7094 -1.10411,0.27968 -0.74702,-2.42747 -1.40646,0.35937 0.71669,2.32479 -1.10158,0.28122 -0.71586,-2.32556 -1.40816,0.3563 0.74534,2.43207 -1.10241,0.27738 -1.13949,-3.70787 z"
             style="fill:#ffffff;fill-opacity:1;fill-rule:nonzero;stroke:none;stroke-width:0.803324"
             id="path180" />
          <path
             d="m 156.27661,131.32972 c 0.0277,0.35017 0.10361,0.79 0.35037,1.03826 0.19456,0.20076 0.44382,0.30037 0.70913,0.28581 0.27454,-0.0169 0.53898,-0.17163 0.68217,-0.43216 0.18096,-0.32489 0.17523,-0.63752 0.14062,-1.00532 l -0.0597,-0.73483 -1.87895,0.12259 z m 2.86009,-2.24664 0.16257,2.07193 c 0.043,0.6789 0.0547,1.31948 -0.30149,1.8865 -0.33774,0.53561 -0.90537,0.89498 -1.49575,0.93252 -0.46572,0.0314 -1.05864,-0.17469 -1.42753,-0.50266 -0.36382,-0.32258 -0.57773,-0.74709 -0.7091,-1.22752 l -2.19562,2.08725 -0.12223,-1.63517 2.28151,-2.03438 -2.42721,0.15632 -0.10433,-1.32484 z"
             style="fill:#ffffff;fill-opacity:1;fill-rule:nonzero;stroke:none;stroke-width:0.803324"
             id="path182" />
          <path
             d="m 154.71855,135.89348 c -0.5011,-0.0582 -0.85819,0.36857 -0.93229,0.89728 -0.0707,0.50189 0.20387,0.9624 0.66112,1.01604 0.69647,0.082 0.9921,-0.54863 1.24391,-1.11642 0.20388,-0.45362 0.37982,-0.84594 0.75208,-1.16393 0.36636,-0.3088 0.85483,-0.46818 1.29109,-0.41684 1.03337,0.11877 1.65405,1.16929 1.49658,2.30717 -0.1566,1.09956 -1.09738,1.99607 -2.08613,1.86888 l 0.19456,-1.35703 c 0.39329,0.0276 0.70827,-0.30803 0.76977,-0.72257 0.059,-0.43216 -0.18955,-0.74632 -0.56766,-0.77774 -0.46068,-0.0628 -0.70743,0.39539 -0.89355,0.80533 -0.22655,0.48197 -0.41942,0.94555 -0.77903,1.31718 -0.42783,0.46664 -0.91969,0.65207 -1.53533,0.58311 -1.126,-0.13256 -1.84776,-1.28193 -1.67091,-2.54547 0.17093,-1.21067 1.15045,-2.1999 2.25287,-2.07193 z"
             style="fill:#ffffff;fill-opacity:1;fill-rule:nonzero;stroke:none;stroke-width:0.803324"
             id="path184" />
          <path
             d="m 158.33914,141.14151 -0.39162,1.27963 -6.1219,-1.54246 0.38742,-1.27963 z"
             style="fill:#ffffff;fill-opacity:1;fill-rule:nonzero;stroke:none;stroke-width:0.803324"
             id="path186" />
          <path
             d="m 155.9448,144.52602 0.55415,-1.21757 1.05696,0.39769 -1.67428,3.68411 -1.05443,-0.39691 0.55921,-1.23749 -4.81482,-1.80681 0.55839,-1.22906 z"
             style="fill:#ffffff;fill-opacity:1;fill-rule:nonzero;stroke:none;stroke-width:0.803324"
             id="path188" />
          <path
             d="m 150.78382,148.19328 4.7702,-0.0575 -0.85652,1.24208 -3.3873,-0.0935 1.56143,2.7401 -0.84977,1.22983 -2.01621,-3.93315 -1.98506,-1.13788 0.77483,-1.12638 z"
             style="fill:#ffffff;fill-opacity:1;fill-rule:nonzero;stroke:none;stroke-width:0.803324"
             id="path190" />
        </g>
        <g
           id="g2151"
           style="fill:#ffffff;fill-opacity:1">
          <path
             d="m 84.926801,162.96575 -7.99072,-4.8557 -0.50196,0.68041 3.15487,1.91563 -1.41322,1.92864 1.84778,1.12025 1.4132,-1.92788 2.99148,1.81372 z"
             style="fill:#ffffff;fill-opacity:1;fill-rule:nonzero;stroke:none;stroke-width:0.803324"
             id="path192" />
          <path
             d="m 84.153671,159.65557 -0.55081,0.75321 -3.64837,-2.21445 0.55417,-0.75553 z m -5.86419,-1.48653 5.50879,3.34238 1.14792,0.69957 2.21579,-3.02513 -1.84356,-1.12103 -0.66616,0.91336 -3.64503,-2.2175 0.66701,-0.90647 -1.85029,-1.12256 -1.72482,2.35469 c -0.26191,0.3586 -0.22225,0.80761 0.19027,1.08269"
             style="fill:#ffffff;fill-opacity:1;fill-rule:nonzero;stroke:none;stroke-width:0.803324"
             id="path194" />
          <path
             d="m 92.481291,167.11882 c 0.18788,-0.5065 1.23128,-0.64518 2.34299,-0.31264 1.10831,0.33332 1.85872,1.01451 1.67594,1.52101 -0.18525,0.50496 -1.23295,0.64364 -2.34129,0.31032 -1.10831,-0.33484 -1.85956,-1.0168 -1.67764,-1.51869 m 3.84377,-2.63514 c 0.22895,-0.21762 0.4371,-0.47276 0.61395,-0.7785 l 1.1176,0.33793 -0.31414,0.86507 z m 4.312029,-1.06047 -2.121489,-0.63522 -0.17356,0.47737 -1.05023,-0.31494 0.17427,-0.47889 -5.46331,-1.64361 -0.26277,0.73407 3.36963,1.00991 c -0.13226,0.50343 -0.9079,2.52171 -4.72133,1.54323 l 0.2182,0.85283 c 0,0 2.56955,0.84286 4.82494,0.10795 l 2.03137,0.60917 -0.42616,1.17082 c -0.5491,-0.32105 -1.20939,-0.6107 -1.95051,-0.83213 -2.28825,-0.6858 -4.42151,-0.47662 -4.76428,0.4697 -0.34616,0.94938 1.23043,2.27575 3.52037,2.96461 2.28822,0.68732 4.4274,0.47659 4.77438,-0.46742 0.01,-0.0376 2.020429,-5.56754 2.020429,-5.56754"
             style="fill:#ffffff;fill-opacity:1;fill-rule:nonzero;stroke:none;stroke-width:0.803324"
             id="path196" />
          <path
             d="m 141.24177,155.63277 c -0.24845,-0.35784 -0.69901,-0.50036 -1.16306,-0.28121 l -6.26172,3.60059 0.48006,0.69805 5.08263,-2.92246 3.3932,4.88635 -0.7066,0.40689 -1.89157,-2.72784 -1.62964,0.93404 1.89411,2.72784 -0.62324,0.35785 -1.89324,-2.72785 -1.6246,0.93329 1.89241,2.73168 -0.86999,0.49959 0.47837,0.69269 7.78692,-4.47948 -0.48174,-0.68887 -0.45562,0.26282 -3.40332,-4.90627"
             style="fill:#ffffff;fill-opacity:1;fill-rule:nonzero;stroke:none;stroke-width:0.803324"
             id="path198" />
          <path
             d="m 106.57118,170.36004 h 3.34182 v -0.004 c 0.10194,0.002 0.67798,0 0.89947,-0.29577 v 1.09497 h 1.92273 v -4.15231 h 0.57943 v 4.13698 h 1.92105 v -7.40194 h -1.92105 v 2.45045 h -0.57943 v -2.45045 h -1.92273 v 5.50625 c -0.24591,0.32029 -0.91883,0.29116 -0.91883,0.29116 v 0.0109 h -1.98673 v -4.99517 h 2.21666 v -0.81221 h -4.43417 v 5.81198"
             style="fill:#ffffff;fill-opacity:1;fill-rule:nonzero;stroke:none;stroke-width:0.803324"
             id="path200" />
          <path
             d="m 105.69277,169.55472 c 0,0.41914 0.36469,0.80224 0.86999,0.80224"
             style="fill:#ffffff;fill-opacity:1;fill-rule:nonzero;stroke:none;stroke-width:0.803324"
             id="path202" />
          <path
             d="m 130.71266,161.63095 -1.03672,0.28734 -0.34616,-1.03289 -2.12064,0.58771 1.3475,4.01896 2.11982,-0.58541 -0.73861,-2.20451 1.04011,-0.28655 z"
             style="fill:#ffffff;fill-opacity:1;fill-rule:nonzero;stroke:none;stroke-width:0.803324"
             id="path204" />
          <path
             d="m 129.985,165.58632 -7.80964,2.16387 0.26191,0.78389 6.52868,-1.80912 0.61564,1.83516 2.11982,-0.58541 -0.62493,-1.8681 c -0.13464,-0.3954 -0.60888,-0.65361 -1.08558,-0.52029"
             style="fill:#ffffff;fill-opacity:1;fill-rule:nonzero;stroke:none;stroke-width:0.803324"
             id="path206" />
          <path
             d="m 124.51159,165.80469 c -0.67291,0.18702 -1.36688,-0.12402 -1.55806,-0.68656 -0.19027,-0.56855 0.20125,-1.17848 0.87085,-1.36315 0.66952,-0.18614 1.36435,0.12186 1.55467,0.68887 0.18788,0.56779 -0.19958,1.17542 -0.86746,1.36084 m 0.96684,-2.99908 1.23551,-0.34251 -0.23825,-0.71797 -2.02631,0.55935 -0.13727,-0.40993 -2.12484,0.58464 0.14061,0.41378 -1.97999,0.54863 0.23918,0.71873 1.28266,-0.35554 c -0.79672,0.50189 -1.12516,1.19764 -0.90114,1.86046 0.35707,1.07196 2.08189,1.54015 3.84712,1.05205 1.76693,-0.49193 2.90979,-1.75471 2.54849,-2.82515 -0.21725,-0.6628 -0.96347,-1.10416 -1.88567,-1.08654"
             style="fill:#ffffff;fill-opacity:1;fill-rule:nonzero;stroke:none;stroke-width:0.803324"
             id="path208" />
        </g>
      </g>
    </g>
  </g>
</svg>
